<svg width="34" height="34" viewBox="0 0 34 34" fill="none" xmlns="http://www.w3.org/2000/svg">
<path d="M21.25 23.375C21.25 21.0278 19.3472 19.125 17 19.125C14.6528 19.125 12.75 21.0278 12.75 23.375V27.625C12.75 29.9722 14.6528 31.875 17 31.875C19.3472 31.875 21.25 29.9722 21.25 27.625V23.375Z" fill="#9D1D28"/>
<path d="M17 2.125C11.7194 2.125 7.4375 6.21988 7.4375 11.2721C7.4375 19.4023 12.75 18.3866 12.75 24.4843C12.75 25.0474 13.2239 25.5 13.8125 25.5H20.1875C20.7761 25.5 21.25 25.0474 21.25 24.4843C21.25 18.3855 26.5625 19.4023 26.5625 11.2721C26.5625 6.21988 22.2806 2.125 17 2.125Z" fill="#FFC46C"/>
<path d="M21.25 24.4375H12.75C12.1632 24.4375 11.6875 24.9132 11.6875 25.5C11.6875 26.0868 12.1632 26.5625 12.75 26.5625H21.25C21.8368 26.5625 22.3125 26.0868 22.3125 25.5C22.3125 24.9132 21.8368 24.4375 21.25 24.4375Z" fill="#34485C"/>
</svg>
