<svg width="24" height="24" viewBox="0 0 24 24" fill="none" xmlns="http://www.w3.org/2000/svg">
<path d="M17.7071 7.70711C18.0976 7.31658 18.0976 6.68342 17.7071 6.29289C17.3166 5.90237 16.6834 5.90237 16.2929 6.29289L7 15.5858L2.70711 11.2929C2.31658 10.9024 1.68342 10.9024 1.29289 11.2929C0.902369 11.6834 0.902369 12.3166 1.29289 12.7071L6.29289 17.7071C6.68342 18.0976 7.31658 18.0976 7.70711 17.7071L17.7071 7.70711Z" fill="#2D9CDB"/>
<path d="M22.7071 7.70711C23.0976 7.31658 23.0976 6.68342 22.7071 6.29289C22.3166 5.90237 21.6834 5.90237 21.2929 6.29289L11.9953 15.5905C11.6028 15.2793 11.0306 15.3051 10.6679 15.6679C10.2774 16.0584 10.2774 16.6916 10.6679 17.0821L11.2929 17.7071C11.6834 18.0976 12.3166 18.0976 12.7071 17.7071L22.7071 7.70711Z" fill="#2D9CDB"/>
<path d="M8.33211 11.9179L7.70711 11.2929C7.31658 10.9024 6.68342 10.9024 6.29289 11.2929C5.90237 11.6834 5.90237 12.3166 6.29289 12.7071L6.91789 13.3321C7.30842 13.7226 7.94158 13.7226 8.33211 13.3321C8.72263 12.9416 8.72263 12.3084 8.33211 11.9179Z" fill="#2D9CDB"/>
</svg>
